<mxfile host="app.diagrams.net" agent="Mozilla/5.0 (Windows NT 10.0; Win64; x64) AppleWebKit/537.36 (KHTML, like Gecko) Chrome/131.0.0.0 Safari/537.36 Edg/131.0.0.0" version="25.0.3">
  <diagram name="Page-1" id="crUbqnZYsKnrsTc1NAuc">
    <mxGraphModel dx="1563" dy="1163" grid="1" gridSize="10" guides="1" tooltips="1" connect="1" arrows="1" fold="1" page="1" pageScale="1" pageWidth="850" pageHeight="1100" math="0" shadow="0">
      <root>
        <mxCell id="0" />
        <mxCell id="1" parent="0" />
        <mxCell id="em-z5aCtODNEUkatrM-B-12" value="" style="edgeStyle=orthogonalEdgeStyle;rounded=0;orthogonalLoop=1;jettySize=auto;html=1;" edge="1" parent="1" source="em-z5aCtODNEUkatrM-B-1" target="em-z5aCtODNEUkatrM-B-2">
          <mxGeometry relative="1" as="geometry" />
        </mxCell>
        <mxCell id="em-z5aCtODNEUkatrM-B-1" value="Start" style="ellipse;whiteSpace=wrap;html=1;" vertex="1" parent="1">
          <mxGeometry x="100" y="40" width="120" height="80" as="geometry" />
        </mxCell>
        <mxCell id="em-z5aCtODNEUkatrM-B-13" style="edgeStyle=orthogonalEdgeStyle;rounded=0;orthogonalLoop=1;jettySize=auto;html=1;entryX=0.5;entryY=0;entryDx=0;entryDy=0;" edge="1" parent="1" source="em-z5aCtODNEUkatrM-B-2" target="em-z5aCtODNEUkatrM-B-3">
          <mxGeometry relative="1" as="geometry">
            <Array as="points">
              <mxPoint x="80" y="190" />
            </Array>
          </mxGeometry>
        </mxCell>
        <mxCell id="em-z5aCtODNEUkatrM-B-2" value="nhập số n" style="rounded=0;whiteSpace=wrap;html=1;" vertex="1" parent="1">
          <mxGeometry x="100" y="160" width="120" height="60" as="geometry" />
        </mxCell>
        <mxCell id="em-z5aCtODNEUkatrM-B-14" style="edgeStyle=orthogonalEdgeStyle;rounded=0;orthogonalLoop=1;jettySize=auto;html=1;entryX=0.5;entryY=0;entryDx=0;entryDy=0;" edge="1" parent="1" source="em-z5aCtODNEUkatrM-B-3" target="em-z5aCtODNEUkatrM-B-4">
          <mxGeometry relative="1" as="geometry">
            <Array as="points">
              <mxPoint x="160" y="310" />
            </Array>
          </mxGeometry>
        </mxCell>
        <mxCell id="em-z5aCtODNEUkatrM-B-3" value="a = 2" style="rounded=0;whiteSpace=wrap;html=1;" vertex="1" parent="1">
          <mxGeometry x="20" y="280" width="120" height="60" as="geometry" />
        </mxCell>
        <mxCell id="em-z5aCtODNEUkatrM-B-15" value="" style="edgeStyle=orthogonalEdgeStyle;rounded=0;orthogonalLoop=1;jettySize=auto;html=1;" edge="1" parent="1" source="em-z5aCtODNEUkatrM-B-4" target="em-z5aCtODNEUkatrM-B-5">
          <mxGeometry relative="1" as="geometry" />
        </mxCell>
        <mxCell id="em-z5aCtODNEUkatrM-B-24" style="edgeStyle=orthogonalEdgeStyle;rounded=0;orthogonalLoop=1;jettySize=auto;html=1;" edge="1" parent="1" source="em-z5aCtODNEUkatrM-B-4" target="em-z5aCtODNEUkatrM-B-20">
          <mxGeometry relative="1" as="geometry">
            <Array as="points">
              <mxPoint x="160" y="530" />
            </Array>
          </mxGeometry>
        </mxCell>
        <mxCell id="em-z5aCtODNEUkatrM-B-4" value="lặp cho đến khi a &amp;lt; n" style="rounded=0;whiteSpace=wrap;html=1;" vertex="1" parent="1">
          <mxGeometry x="100" y="380" width="120" height="60" as="geometry" />
        </mxCell>
        <mxCell id="em-z5aCtODNEUkatrM-B-16" value="" style="edgeStyle=orthogonalEdgeStyle;rounded=0;orthogonalLoop=1;jettySize=auto;html=1;" edge="1" parent="1" source="em-z5aCtODNEUkatrM-B-5" target="em-z5aCtODNEUkatrM-B-6">
          <mxGeometry relative="1" as="geometry" />
        </mxCell>
        <mxCell id="em-z5aCtODNEUkatrM-B-5" value="cho biến prime là true" style="rounded=0;whiteSpace=wrap;html=1;" vertex="1" parent="1">
          <mxGeometry x="-20" y="480" width="120" height="60" as="geometry" />
        </mxCell>
        <mxCell id="em-z5aCtODNEUkatrM-B-17" value="" style="edgeStyle=orthogonalEdgeStyle;rounded=0;orthogonalLoop=1;jettySize=auto;html=1;" edge="1" parent="1" source="em-z5aCtODNEUkatrM-B-6" target="em-z5aCtODNEUkatrM-B-8">
          <mxGeometry relative="1" as="geometry" />
        </mxCell>
        <mxCell id="em-z5aCtODNEUkatrM-B-6" value="cho i=2, i nhỏ hơn căng bậc 2 của a, i tăng 1 đơn vị" style="rounded=0;whiteSpace=wrap;html=1;" vertex="1" parent="1">
          <mxGeometry x="-20" y="600" width="120" height="60" as="geometry" />
        </mxCell>
        <mxCell id="em-z5aCtODNEUkatrM-B-18" value="true" style="edgeStyle=orthogonalEdgeStyle;rounded=0;orthogonalLoop=1;jettySize=auto;html=1;" edge="1" parent="1" source="em-z5aCtODNEUkatrM-B-8" target="em-z5aCtODNEUkatrM-B-9">
          <mxGeometry relative="1" as="geometry">
            <Array as="points">
              <mxPoint x="-50" y="780" />
            </Array>
          </mxGeometry>
        </mxCell>
        <mxCell id="em-z5aCtODNEUkatrM-B-8" value="a chi hết cho i" style="rhombus;whiteSpace=wrap;html=1;" vertex="1" parent="1">
          <mxGeometry y="740" width="80" height="80" as="geometry" />
        </mxCell>
        <mxCell id="em-z5aCtODNEUkatrM-B-19" value="" style="edgeStyle=orthogonalEdgeStyle;rounded=0;orthogonalLoop=1;jettySize=auto;html=1;" edge="1" parent="1" source="em-z5aCtODNEUkatrM-B-9" target="em-z5aCtODNEUkatrM-B-10">
          <mxGeometry relative="1" as="geometry" />
        </mxCell>
        <mxCell id="em-z5aCtODNEUkatrM-B-9" value="cho biến prime là false" style="rounded=0;whiteSpace=wrap;html=1;" vertex="1" parent="1">
          <mxGeometry x="-90" y="860" width="120" height="60" as="geometry" />
        </mxCell>
        <mxCell id="em-z5aCtODNEUkatrM-B-32" style="edgeStyle=orthogonalEdgeStyle;rounded=0;orthogonalLoop=1;jettySize=auto;html=1;entryX=1;entryY=0.5;entryDx=0;entryDy=0;" edge="1" parent="1" source="em-z5aCtODNEUkatrM-B-10" target="em-z5aCtODNEUkatrM-B-20">
          <mxGeometry relative="1" as="geometry">
            <mxPoint x="470" y="1100" as="targetPoint" />
            <Array as="points">
              <mxPoint x="-30" y="1075" />
              <mxPoint x="520" y="1075" />
              <mxPoint x="520" y="530" />
            </Array>
          </mxGeometry>
        </mxCell>
        <mxCell id="em-z5aCtODNEUkatrM-B-10" value="dừng vòng lặp" style="rounded=0;whiteSpace=wrap;html=1;" vertex="1" parent="1">
          <mxGeometry x="-90" y="950" width="120" height="60" as="geometry" />
        </mxCell>
        <mxCell id="em-z5aCtODNEUkatrM-B-27" value="" style="edgeStyle=orthogonalEdgeStyle;rounded=0;orthogonalLoop=1;jettySize=auto;html=1;" edge="1" parent="1" source="em-z5aCtODNEUkatrM-B-20" target="em-z5aCtODNEUkatrM-B-21">
          <mxGeometry relative="1" as="geometry" />
        </mxCell>
        <mxCell id="em-z5aCtODNEUkatrM-B-20" value="prime là true" style="rhombus;whiteSpace=wrap;html=1;" vertex="1" parent="1">
          <mxGeometry x="260" y="490" width="80" height="80" as="geometry" />
        </mxCell>
        <mxCell id="em-z5aCtODNEUkatrM-B-25" style="edgeStyle=orthogonalEdgeStyle;rounded=0;orthogonalLoop=1;jettySize=auto;html=1;exitX=0.5;exitY=1;exitDx=0;exitDy=0;entryX=0.5;entryY=0;entryDx=0;entryDy=0;" edge="1" parent="1" source="em-z5aCtODNEUkatrM-B-21" target="em-z5aCtODNEUkatrM-B-22">
          <mxGeometry relative="1" as="geometry" />
        </mxCell>
        <mxCell id="em-z5aCtODNEUkatrM-B-21" value="các số nguyên tố từ 1 đến n" style="shape=parallelogram;perimeter=parallelogramPerimeter;whiteSpace=wrap;html=1;fixedSize=1;" vertex="1" parent="1">
          <mxGeometry x="240" y="630" width="120" height="60" as="geometry" />
        </mxCell>
        <mxCell id="em-z5aCtODNEUkatrM-B-30" style="edgeStyle=orthogonalEdgeStyle;rounded=0;orthogonalLoop=1;jettySize=auto;html=1;entryX=0.5;entryY=0;entryDx=0;entryDy=0;" edge="1" parent="1" source="em-z5aCtODNEUkatrM-B-22" target="em-z5aCtODNEUkatrM-B-23">
          <mxGeometry relative="1" as="geometry" />
        </mxCell>
        <mxCell id="em-z5aCtODNEUkatrM-B-22" value="tăng a thêm 1 đơn vị" style="rounded=0;whiteSpace=wrap;html=1;" vertex="1" parent="1">
          <mxGeometry x="240" y="760" width="120" height="60" as="geometry" />
        </mxCell>
        <mxCell id="em-z5aCtODNEUkatrM-B-23" value="end" style="ellipse;whiteSpace=wrap;html=1;" vertex="1" parent="1">
          <mxGeometry x="240" y="910" width="120" height="80" as="geometry" />
        </mxCell>
      </root>
    </mxGraphModel>
  </diagram>
</mxfile>
